# xmcd
# 
# Track frame offsets:
#     150
#     15502
#     28902
#     46487
#     57207
#     73737
#     88867
#     100482
#     114922
#     125937
#     138610
#     150805
#     165395
#     183977
#     199782
#     211762
#     220840
#     234252
#     246400
#     264737
# 
# Disc length: 3736
# 
# Revision: 3
# Processed by: cddbd v1.5.2PL0 Copyright (c) Steve Scherf et al.
# Submitted via: fre:ac v1.0.17
# 
DISCID=1e0e9614
DTITLE=Various Artist - Bak Bir Varmış Bir Yokmuş 3
DYEAR=2005
DGENRE=Oldies
TTITLE0=Hümeyra - Otuzbeş Yaş (1975)
TTITLE1=Tanju Okan - Koy Koy Koy (1972)
TTITLE2=Yeliz - Bu Ne Dünya (1976)
TTITLE3=Nilüfer - Göreceksin Kendini (1973)
TTITLE4=Atilla Atasoy - Bir Gün Beni Ararsan (1977)
TTITLE5=Ayten Alpman - Ben Böyleyim (1976)
TTITLE6=Nesrin Sipahi - Hasret (1970)
TTITLE7=Dario Moreno - İstanbul'un Kızları (1966)
TTITLE8=Füsun Önal - Flört (1972)
TTITLE9=Nejat Yavaşoğulları - Yalnız Kalma Bu Dünyada (1975)
TTITLE10=Nazar - Sevince (1978)
TTITLE11=Lale Belkıs - Ya Merhaba Ya Elveda (1977)
TTITLE12=Ömür Göksel - Yaşadım Mı Öldüm Mü (1976)
TTITLE13=Gönül Turgut - Aşkı Sende Buldum (1969)
TTITLE14=Kerem Yılmazer - Ah Sen Sen Sen Sen (1976)
TTITLE15=Bilgen Bengü - Söyle Kimdi O (1976)
TTITLE16=Rana Alagöz - Dibi Dibi Da (1976)
TTITLE17=Ay-Feri - Dünya Ne Yalan (1969)
TTITLE18=Alpay - Sensizliğimin Şarkısı (1978)
TTITLE19=Şecaattin Tanyerli - Ayrılık (1968)
EXTD=
EXTT0=
EXTT1=
EXTT2=
EXTT3=
EXTT4=
EXTT5=
EXTT6=
EXTT7=
EXTT8=
EXTT9=
EXTT10=
EXTT11=
EXTT12=
EXTT13=
EXTT14=
EXTT15=
EXTT16=
EXTT17=
EXTT18=
EXTT19=
PLAYORDER=
